<?xml version="1.0" encoding="UTF-8"?>
<svg id="Layer_1" data-name="Layer 1" xmlns="http://www.w3.org/2000/svg" width="153.5" height="19.34" viewBox="0 0 153.5 19.34">
  <defs>
    <style>
      .cls-1 {
        fill: #4d4c4e;
      }
    </style>
  </defs>
  <path class="cls-1" d="M1.61,8.95C1.61,5.64,3.76,3.09,7.41,3.09s5.8,2.56,5.8,5.86-2.12,5.84-5.8,5.84S1.61,12.17,1.61,8.95Zm9.3,0c0-2.32-1.26-3.86-3.54-3.86s-3.47,1.54-3.47,3.86,1.32,3.85,3.5,3.85,3.51-1.51,3.51-3.85Z"/>
  <path class="cls-1" d="M15.78,10.68c0-2.48,1.51-4.19,3.77-4.19,.84,0,1.68,.34,2.06,.76h.09V2.78h2.23V11.8c0,1.06,.17,1.26,.58,1.26,.11,0,.22-.01,.33-.03v1.53c-.31,.12-.76,.22-1.14,.22-.93,0-1.48-.42-1.57-1.21h-.11c-.44,.81-1.42,1.23-2.6,1.23-2.2,0-3.63-1.7-3.63-4.11Zm6.06-.03c0-1.37-.72-2.2-1.88-2.2-1.09,0-1.89,.83-1.89,2.2s.78,2.2,1.9,2.2c1.2,0,1.87-.86,1.87-2.2Z"/>
  <path class="cls-1" d="M27.29,10.68c0-2.48,1.51-4.19,3.77-4.19,.84,0,1.68,.34,2.06,.76h.09V2.78h2.23V11.8c0,1.06,.17,1.26,.58,1.26,.11,0,.22-.01,.33-.03v1.53c-.31,.12-.76,.22-1.14,.22-.93,0-1.48-.42-1.57-1.21h-.11c-.44,.81-1.42,1.23-2.6,1.23-2.2,0-3.63-1.7-3.63-4.11Zm6.06-.03c0-1.37-.72-2.2-1.88-2.2-1.09,0-1.89,.83-1.89,2.2s.78,2.2,1.9,2.2c1.2,0,1.87-.86,1.87-2.2Z"/>
  <path class="cls-1" d="M38.67,12.33c0-1.7,1.43-2.65,3.15-2.65,.73,0,1.51,.16,2.18,.53,0-1.39-.9-1.78-2.03-1.78-.81,0-1.73,.23-2.54,.61v-1.95c.84-.4,1.92-.62,2.88-.62,3.32,0,3.83,2.17,3.83,4.53v.79c0,1.06,.09,1.22,.48,1.22,.09,0,.2-.02,.31-.03v1.57c-.31,.12-.73,.22-1.11,.22-.87,0-1.4-.42-1.5-1.21h-.11c-.64,.81-1.57,1.23-2.62,1.23-1.84,0-2.94-.84-2.94-2.46Zm5.33-.69c-.44-.28-.98-.42-1.48-.42-.93,0-1.54,.34-1.54,.98,0,.58,.39,.86,1.15,.86,.9,0,1.78-.68,1.87-1.42Z"/>
  <path class="cls-1" d="M49.78,2.78h2.23V14.54h-2.23V2.78Z"/>
  <path class="cls-1" d="M53.48,17.83v-1.87c.28,.11,.81,.22,1.06,.22,.64,0,1.06-.33,1.06-1.43V6.7h2.23V14.82c0,2.55-1.29,3.3-2.96,3.3-.54,0-1.03-.16-1.39-.3Zm1.67-13.6c0-.93,.65-1.51,1.59-1.51s1.56,.58,1.56,1.51-.61,1.54-1.56,1.54-1.59-.61-1.59-1.54Z"/>
  <path class="cls-1" d="M60.82,10.58c0-2.46,1.65-4.11,3.99-4.11s3.71,1.54,3.71,3.68c0,.58-.06,.98-.11,1.25h-5.28c0,.59,.56,1.53,2.32,1.53,.67,0,1.71-.09,2.6-.42v1.75c-.92,.37-1.68,.54-2.76,.54-2.94,0-4.47-1.7-4.47-4.21Zm5.42-.7c.02-.06,.02-.17,.02-.23,0-.65-.41-1.31-1.5-1.31-.92,0-1.65,.67-1.65,1.54h3.13Z"/>
  <path class="cls-1" d="M71.51,6.72h1.43c.14,.39,.28,.79,.37,1.12h.09c.44-.76,1.43-1.34,2.57-1.34,2.06,0,3.32,1.25,3.32,3.91v4.13h-2.23v-3.94c0-1.14-.37-2.09-1.53-2.09s-1.79,.76-1.79,2.06l-.02,3.97h-2.23V6.72Z"/>
  <path class="cls-1" d="M82.15,4.23c0-.93,.65-1.51,1.59-1.51s1.56,.58,1.56,1.51-.61,1.54-1.56,1.54-1.59-.61-1.59-1.54Zm.51,2.48h2.23v7.84h-2.23V6.7Z"/>
  <path class="cls-1" d="M92.94,10.68c0-2.48,1.51-4.19,3.77-4.19,.84,0,1.68,.34,2.06,.76h.09V2.78h2.23V11.8c0,1.06,.17,1.26,.58,1.26,.11,0,.22-.01,.33-.03v1.53c-.31,.12-.76,.22-1.14,.22-.93,0-1.48-.42-1.57-1.21h-.11c-.44,.81-1.42,1.23-2.6,1.23-2.2,0-3.63-1.7-3.63-4.11Zm6.06-.03c0-1.37-.72-2.2-1.88-2.2-1.09,0-1.89,.83-1.89,2.2s.78,2.2,1.9,2.2c1.2,0,1.87-.86,1.87-2.2Z"/>
  <path class="cls-1" d="M104.43,10.63c0-2.56,1.67-4.14,4.3-4.14s4.28,1.59,4.28,4.14-1.64,4.14-4.28,4.14-4.3-1.64-4.3-4.14Zm6.29,0c0-1.34-.79-2.15-2.03-2.15s-1.98,.81-1.98,2.15,.86,2.15,2.01,2.15,1.99-.78,1.99-2.15Z"/>
  <path class="cls-1" d="M115.63,14.01l.02-1.95c.75,.47,2.34,.94,3.4,.94,.62,0,1.11-.17,1.11-.61,0-.53-.75-.7-1.68-.92-1.32-.31-2.85-.79-2.85-2.51,0-1.43,1.21-2.49,3.33-2.49,1,0,2.15,.17,2.94,.44v1.95c-.73-.31-1.96-.62-2.87-.62-.62,0-1.06,.16-1.06,.59,0,.55,.65,.65,1.76,.9,1.18,.27,2.77,.7,2.77,2.45,0,1.34-.87,2.6-3.51,2.6-1.68,0-3.08-.59-3.36-.76Z"/>
  <path class="cls-1" d="M130,12.79v1.73c-.31,.12-1.07,.25-1.45,.25-.93,0-2.77-.25-2.77-2.82v-3.3h-.87v-1.95h.98c.14-.86,.37-1.53,.47-1.79h1.65v1.79h1.79v1.95h-1.79v2.99c0,1.21,.64,1.23,1.26,1.23,.11,0,.62-.06,.73-.08Z"/>
  <path class="cls-1" d="M132.29,10.63c0-2.56,1.67-4.14,4.3-4.14s4.28,1.59,4.28,4.14-1.64,4.14-4.28,4.14-4.3-1.64-4.3-4.14Zm6.29,0c0-1.34-.79-2.15-2.03-2.15s-1.98,.81-1.98,2.15,.86,2.15,2.01,2.15,1.99-.78,1.99-2.15Z"/>
  <path class="cls-1" d="M143.85,6.7h1.45c.12,.34,.2,.65,.36,1.14h.11c.45-.81,1.43-1.36,2.62-1.36,2.21,0,3.63,1.7,3.63,4.11s-1.67,4.19-3.85,4.19c-.86,0-1.56-.28-1.99-.76h-.09v3.86h-2.23V6.7Zm5.87,3.93c0-1.34-.78-2.2-1.9-2.2-1.2,0-1.87,.86-1.87,2.2s.72,2.2,1.89,2.2c1.09,0,1.88-.83,1.88-2.2Z"/>
</svg>