<?xml version="1.0" encoding="utf-8"?>
<!-- Generator: Adobe Illustrator 25.2.3, SVG Export Plug-In . SVG Version: 6.00 Build 0)  -->
<svg version="1.1" xmlns="http://www.w3.org/2000/svg" xmlns:xlink="http://www.w3.org/1999/xlink" x="0px" y="0px" width="180px"
	 height="170.794px" viewBox="0 0 180 170.794" style="enable-background:new 0 0 180 170.794;" xml:space="preserve">
<style type="text/css">
	.st0{display:none;}
	.st1{display:inline;fill:#FFFFFF;}
	.st2{display:inline;fill-rule:evenodd;clip-rule:evenodd;fill:#FFFFFF;}
	.st3{display:inline;}
	.st4{display:inline;fill-rule:evenodd;clip-rule:evenodd;}
	.st5{display:inline;fill:url(#SVGID_1_);}
	.st6{display:inline;fill-rule:evenodd;clip-rule:evenodd;fill:url(#SVGID_2_);}
	.st7{fill:#414042;}
	.st8{fill:url(#SVGID_3_);}
	.st9{fill-rule:evenodd;clip-rule:evenodd;fill:url(#SVGID_4_);}
</style>
<g id="Negativ" class="st0">
	<path class="st1" d="M-10.1436,112.8421l5.7129,0.02c4.0781,0,6.2979,1.6758,6.2979,5.1479c0,2.1392-1.0899,3.7549-2.1997,4.4009
		l2.8867,4.9658h-4.9859l-2.06-4.2387h-1.231v4.2387h-4.4209V112.8421z M-4.4307,119.5847c1.1299,0,1.7158-0.5048,1.7158-1.4936
		c0-1.0103-0.646-1.5142-1.7768-1.5142h-1.231v3.0078H-4.4307z"/>
	<polygon class="st1" points="16.4013,112.8416 25.1621,112.8416 25.1621,114.8806 18.6621,114.8806 18.6621,119.0799 
		24.5161,119.0799 24.5161,121.1389 18.6621,121.1389 18.6821,125.3377 25.1831,125.3377 25.1831,127.3767 16.4013,127.3767 	"/>
	<path class="st1" d="M39.3373,112.8416h4.7232c4.0991,0,5.814,1.9385,5.814,4.9868c0,3.1699-1.856,4.9458-5.814,4.9458h-2.4419
		v4.6035h-2.2813V112.8416z M44.1015,120.7351c2.4428,0,3.4322-1.0097,3.4322-2.9067c0-1.7769-0.9894-2.9468-3.4322-2.9468h-2.4829
		v5.8535H44.1015z"/>
	<path class="st1" d="M63.4853,121.8455v-9.0039h2.2808v8.8828c0,2.4233,1.1313,3.8555,3.8564,3.8555
		c2.7455,0,3.896-1.4322,3.896-3.8555v-8.8828h2.2808v9.0039c0,3.6943-2.2808,5.7939-6.1768,5.7939
		C65.746,127.6394,63.4853,125.5799,63.4853,121.8455z"/>
	<path class="st1" d="M90.58,112.8421h4.9262c3.5928,0,4.7842,1.4936,4.7842,3.6753c0,1.6547-0.7462,2.9057-2.2412,3.3296v0.121
		c1.7367,0.4439,2.8071,1.5142,2.8071,3.4122c0,2.9682-2.1811,3.9965-5.3301,3.9965H90.58V112.8421z M95.4653,125.3777
		c1.8369,0,3.0488-0.4023,3.0488-2.1797c0-1.4726-1.1108-2.2412-2.9467-2.2412h-2.7061v4.4209H95.4653z M95.5263,118.9988
		c1.393,0,2.4229-0.7471,2.4229-2.1396c0-1.4131-0.9487-2.0181-2.6851-2.0181h-2.3828v4.1577H95.5263z"/>
	<polygon class="st1" points="114.9095,112.822 117.1903,112.822 117.2313,125.3172 123.1665,125.3172 123.1665,127.3562 
		114.9095,127.3562 	"/>
	<polygon class="st1" points="136.7959,112.8416 139.0571,112.8416 139.077,127.3567 136.7959,127.3567 	"/>
	<polygon class="st1" points="154.0385,112.8416 156.3193,112.8416 156.3193,118.9178 159.1254,118.9178 163.1835,112.8416 
		165.9086,112.8416 161.0434,119.948 166.2513,127.3767 163.5263,127.3767 159.1053,121.1389 156.3193,121.1389 156.3193,127.3767 
		154.0385,127.3767 	"/>
	<polygon class="st1" points="178.7924,112.8416 188.5835,112.8416 188.5835,116.2737 183.2133,116.2737 183.2133,118.3328 
		187.9975,118.3328 187.9975,121.8855 183.2133,121.8855 183.2133,123.9461 188.5835,123.9461 188.5835,127.3767 178.7924,127.3767 
			"/>
	<path class="st1" d="M-10.0967,160.5382v-2.2207c1.5342,0.9492,3.5332,1.4336,5.0469,1.4336c2.018,0,3.1093-0.7876,3.1093-2.1407
		c0-1.7763-1.9794-2.0581-4.038-2.7241c-2.0391-0.626-3.896-1.6157-3.896-4.2397c0-2.625,2.0786-3.9771,4.9858-3.9771
		c1.7769,0,3.291,0.3628,4.583,1.0899v2.1801c-1.191-0.8071-2.8472-1.2314-4.2402-1.2314c-1.9776,0-2.9868,0.6465-2.9868,1.918
		c0,1.4336,1.2109,1.8374,2.7251,2.3012c2.3418,0.7071,5.2089,1.4131,5.2089,4.583c0,2.8462-2.1201,4.2789-5.249,4.2789
		C-6.4839,161.7892-8.5625,161.3863-10.0967,160.5382z"/>
	<polygon class="st1" points="14.6162,146.9522 16.8974,146.9522 16.938,159.4474 22.873,159.4474 22.873,161.4864 
		14.6162,161.4864 	"/>
	<path class="st1" d="M35.8764,154.2394c0-4.3809,2.9073-7.5699,7.4291-7.5699c4.5421,0,7.4489,3.189,7.4489,7.5699
		c0,4.3603-2.8867,7.5913-7.4489,7.5913C38.7836,161.8307,35.8764,158.5997,35.8764,154.2394z M48.3926,154.2394
		c0-3.3106-1.938-5.5308-5.107-5.5308c-3.1089,0-5.0669,2.2202-5.0669,5.5308c0,3.3925,2.0181,5.5312,5.0868,5.5312
		C46.4756,159.7706,48.3926,157.6319,48.3926,154.2394z"/>
	<polygon class="st1" points="63.5171,146.9718 66.0399,146.9718 70.6229,159.3263 70.744,159.3263 75.327,146.9718 
		77.6678,146.9718 72.0161,161.5069 69.1688,161.5069 	"/>
	<polygon class="st1" points="91.3594,146.9718 100.12,146.9718 100.12,149.0108 93.62,149.0108 93.62,153.2101 99.4741,153.2101 
		99.4741,155.2691 93.62,155.2691 93.6401,159.4679 100.1411,159.4679 100.1411,161.5069 91.3594,161.5069 	"/>
	<polygon class="st1" points="114.5984,146.9923 116.9203,146.9923 124.5306,157.6515 124.6513,157.6515 124.6117,146.9923 
		126.8925,146.9923 126.8925,161.5074 124.7122,161.5074 116.9403,150.8282 116.8398,150.8282 116.8793,161.5074 114.5984,161.5074 
			"/>
	<polygon class="st1" points="142.1586,146.9718 144.4198,146.9718 144.4398,161.4869 142.1586,161.4869 	"/>
	<path class="st1" d="M158.2905,161.5675v-2.1397c0.4639,0.1211,0.9082,0.1817,1.353,0.1817c1.5142,0,2.564-0.586,2.564-2.9278
		v-9.7099h2.2798v9.9726c0,3.3711-1.6138,4.8252-4.3799,4.8252C159.4413,161.7696,158.8553,161.7101,158.2905,161.5675z"/>
	<polygon class="st1" points="179.6113,146.9718 188.3725,146.9718 188.3725,149.0108 181.8725,149.0108 181.8725,153.2101 
		187.7264,153.2101 187.7264,155.2691 181.8725,155.2691 181.8925,159.4679 188.3934,159.4679 188.3934,161.5069 179.6113,161.5069 
			"/>
	<rect x="60.5857" y="176.0368" class="st1" width="58.0989" height="4.4224"/>
	<path class="st1" d="M-10.1861,92.3782v-4.2388c1.6958,1.0288,3.876,1.7163,5.3902,1.7163c0.9687,0,1.4536-0.3242,1.4536-0.9091
		c0-0.8072-1.1309-0.8682-2.2817-1.2315c-1.917-0.6055-4.481-1.5547-4.481-4.8247c0-2.8257,2.1596-4.4009,5.4497-4.4009
		c2.019,0,3.937,0.3838,5.2891,0.9287v4.2193c-1.1499-0.687-3.3301-1.4341-4.7427-1.4341c-0.8482,0-1.292,0.2432-1.292,0.8281
		c0,0.666,0.7666,0.8477,1.6138,1.0899c2.0189,0.5859,5.209,1.2734,5.209,4.7651c0,3.1689-2.1602,4.7231-5.9151,4.7231
		C-6.9971,93.6096-9.1973,92.8831-10.1861,92.3782z"/>
	<path class="st1" d="M19.1914,86.0598c0-4.3198,2.9472-7.5908,7.792-7.5908c4.8452,0,7.813,3.271,7.813,7.5908
		c0,4.4414-2.8672,7.5503-7.773,7.5503C22.0985,93.6101,19.1914,90.5012,19.1914,86.0598z M30.2134,86.0598
		c-0.021-2.4414-1.3731-3.6128-3.23-3.6128c-1.8369,0-3.21,1.1714-3.21,3.6128c0,2.3423,1.333,3.5933,3.21,3.5933
		C28.9214,89.6531,30.2134,88.4021,30.2134,86.0598z"/>
	<path class="st1" d="M53.2724,78.7722h5.5918c4.9663,0,7.5503,2.7461,7.5503,7.2671c0,4.523-2.584,7.2676-7.5503,7.2676h-5.5918
		V78.7722z M58.9853,89.471c1.8369,0,2.8462-1.0689,2.8462-3.4317c0-2.4424-1.1304-3.4311-2.8462-3.4311h-1.292v6.8628H58.9853z"/>
	<path class="st1" d="M84.4863,92.3782v-4.2388c1.6958,1.0288,3.876,1.7163,5.3901,1.7163c0.9688,0,1.4537-0.3242,1.4537-0.9091
		c0-0.8072-1.1309-0.8682-2.2818-1.2315c-1.917-0.6055-4.4809-1.5547-4.4809-4.8247c0-2.8257,2.1601-4.4009,5.4502-4.4009
		c2.0184,0,3.9365,0.3838,5.2885,0.9287v4.2193c-1.1499-0.687-3.3296-1.4341-4.7426-1.4341c-0.8482,0-1.292,0.2432-1.292,0.8281
		c0,0.666,0.7666,0.8477,1.6137,1.0899c2.0191,0.5859,5.209,1.2734,5.209,4.7651c0,3.1689-2.1597,4.7231-5.915,4.7231
		C87.6753,93.6096,85.4751,92.8831,84.4863,92.3782z"/>
	<polygon class="st1" points="117.2753,82.9104 113.6415,82.9104 113.6415,78.7718 125.3706,78.7718 125.3706,82.9104 
		121.7163,82.9104 121.7163,93.3069 117.2953,93.3069 	"/>
	<polygon class="st1" points="142.3324,78.7718 147.0565,78.7718 149.7417,88.0789 149.9221,88.0789 152.5471,78.7718 
		157.1693,78.7718 152.2845,93.3069 147.2173,93.3069 	"/>
	<path class="st1" d="M174.5813,86.0598c0-4.3198,2.9467-7.5908,7.792-7.5908c4.8447,0,7.8129,3.271,7.8129,7.5908
		c0,4.4414-2.8671,7.5503-7.7729,7.5503C177.4879,93.6101,174.5813,90.5012,174.5813,86.0598z M185.6031,86.0598
		c-0.021-2.4414-1.373-3.6128-3.2299-3.6128c-1.837,0-3.21,1.1714-3.21,3.6128c0,2.3423,1.333,3.5933,3.21,3.5933
		C184.3111,89.6531,185.6031,88.4021,185.6031,86.0598z"/>
	<path class="st2" d="M118.3914-3.1009c-0.512-0.2478-2.0819-0.9531-2.0819-0.9531c-8.3709-3.6728-17.5401-5.6111-26.6739-5.6111
		c-9.1345,0-18.3057,1.9384-26.6766,5.6111c-0.0203,0.0066-1.5693,0.7054-2.0825,0.9531c-0.1881,0.0891-0.3042,0.2877-0.2904,0.4949
		l2.0898,33.0691c0.5801,9.1719,4.4778,17.801,10.9791,24.3003c4.3991,4.3997,9.8726,7.6701,15.8332,9.4597
		c0.0465,0.0157,0.0977,0.0223,0.1475,0.0223c0.0505,0,0.0983-0.0066,0.1468-0.0223c5.9586-1.7896,11.4347-5.0599,15.8338-9.4597
		c6.4994-6.4993,10.3983-15.1285,10.9765-24.3003l2.0904-33.0691C118.6962-2.8132,118.5821-3.0118,118.3914-3.1009z M92.5994-2.1898
		L95.0794-1.92l1.0064-2.2826L97.0922-1.92l2.48-0.2697l-1.4735,2.0128l1.4735,2.0129l-2.48-0.2697l-1.0064,2.2826l-1.0064-2.2826
		l-2.4799,0.2697l1.4735-2.0129L92.5994-2.1898z M89.6345,4.4061l1.0064,2.2826l2.4799-0.2697l-1.4735,2.0128l1.4735,2.0128
		l-2.4799-0.2697l-1.0064,2.2826l-1.0064-2.2826l-2.4799,0.2697l1.4735-2.0128l-1.4735-2.0128l2.4799,0.2697L89.6345,4.4061z
		 M79.6763-2.1898L82.1563-1.92l1.0064-2.2826L84.1691-1.92l2.4799-0.2697l-1.4735,2.0128l1.4735,2.0129l-2.4799-0.2697
		l-1.0064,2.2826l-1.0064-2.2826l-2.4799,0.2697l1.4735-2.0129L79.6763-2.1898z M79.6948,21.6847l3.9382,5.1711l5.9955-11.7883
		l6.0089,11.7883l3.9368-5.1711l9.9396,13.0949c-0.0033,0.4641-0.0478,1.1609-0.2425,2.0177
		c-0.1757,0.7729-0.5664,1.6984-1.7188,2.881c-1.1543,1.1839-2.875,1.9154-4.6253,1.9154c-1.1078,0-2.2019-0.2832-3.1694-0.8187
		c-0.607-0.3513-1.1563-0.5788-1.7253-0.7315c-0.5788-0.1554-1.1701-0.2321-1.7613-0.2321c-1.1727,0-2.3363,0.312-3.3674,0.9046
		c-0.9924,0.5742-2.1219,0.8777-3.2677,0.8777c-1.1471,0-2.2766-0.3035-3.2716-0.8777c-1.0285-0.5926-2.194-0.9046-3.3673-0.9046
		c-0.5906,0-1.1819,0.0767-1.7581,0.2321c-0.5696,0.1527-1.119,0.3802-1.7279,0.7315c-0.9649,0.5356-2.0616,0.8187-3.1694,0.8187
		c-1.7482,0-3.4703-0.7315-4.6239-1.9154c-1.1517-1.1826-1.5437-2.1081-1.7194-2.881c-0.1927-0.8568-0.2399-1.5536-0.2432-2.0177
		L79.6948,21.6847z M101.2374,45.2094c-0.5539-0.1494-1.0862-0.3704-1.5817-0.6542c-2.0537-1.1839-4.7039-1.1826-6.753,0.0013
		c-1.0075,0.5821-2.1324,0.8515-3.2677,0.8502c-1.1353,0.0013-2.2582-0.2681-3.2677-0.8502c-2.0504-1.1839-4.7-1.1852-6.7517-0.0013
		c-0.4975,0.2838-1.0298,0.5047-1.5817,0.6542c-1.469,0.3894-3.0415,0.2583-4.4548-0.3887l-0.2924-0.139
		c-0.4674-0.7604-0.919-1.5385-1.3222-2.3342c0.3809,0.1481,0.7001,0.3002,1.0016,0.4733c1.0292,0.5945,2.1933,0.9092,3.366,0.9092
		c0.59,0,1.1806-0.0793,1.7587-0.2341c0.5644-0.1501,1.1131-0.3776,1.625-0.6752c0.997-0.5716,2.1284-0.8764,3.271-0.8764
		c1.1491,0,2.2786,0.3035,3.271,0.8764c1.0285,0.5945,2.192,0.9092,3.3673,0.9092c1.1943,0,2.3578-0.3147,3.389-0.9092
		c0.9918-0.5729,2.1219-0.8764,3.2684-0.8764c1.1452,0,2.2766,0.3048,3.2716,0.8764c0.5139,0.2976,1.06,0.5251,1.6263,0.6752
		c0.5755,0.1547,1.1668,0.2341,1.7561,0.2341c1.1727,0,2.3395-0.3147,3.3686-0.9092c0.2996-0.173,0.6208-0.3251,0.9459-0.4503
		c-0.3468,0.7728-0.7991,1.5509-1.2685,2.3113l-0.293,0.139C104.2789,45.4677,102.7071,45.5988,101.2374,45.2094z M104.0554,47.4683
		c-0.7715,0.9892-1.6106,1.941-2.5001,2.8292c-3.3241,3.3247-7.4321,5.8845-11.8811,7.4046
		c-4.5276-1.5201-8.6357-4.0799-11.9591-7.4046c-0.8882-0.8882-1.7292-1.84-2.5014-2.8292c1.0029,0.16,1.9528,0.1128,2.877-0.1357
		c0.5703-0.1534,1.1176-0.3789,1.6263-0.6725c1.9868-1.1491,4.5558-1.1458,6.542-0.002c1.0416,0.6017,2.1953,0.9085,3.366,0.9085
		c1.1897,0,2.3454-0.3068,3.387-0.9085c1.9862-1.1439,4.5558-1.1471,6.542,0.002c0.5093,0.2937,1.0541,0.5192,1.6263,0.6725
		c0.9243,0.2485,1.8721,0.2956,2.8226,0.1462L104.0554,47.4683z M114.8359,30.3084c-0.5454,8.6671-4.23,16.8223-10.3728,22.9651
		c-4.1251,4.1232-9.2472,7.1981-14.8276,8.8972c-5.5797-1.6991-10.7058-4.774-14.8282-8.8972
		c-6.1421-6.1414-9.8261-14.296-10.3728-22.9651L62.4261-1.4739l1.4933-0.6188l2.0432,32.2923
		c0.5185,8.2706,4.0347,16.0967,9.9283,21.9903c3.8832,3.8832,8.6062,6.7347,13.7427,8.3755
		c5.1372-1.6407,9.8621-4.4922,13.746-8.3755c5.8937-5.8937,9.4098-13.7198,9.9276-21.9903l2.0413-32.2923
		c0.4949,0.2026,1.235,0.4956,1.4965,0.6201L114.8359,30.3084z"/>
</g>
<g id="Mono" class="st0">
	<path class="st3" d="M-10.1436,112.8421l5.7129,0.02c4.0781,0,6.2979,1.6758,6.2979,5.1479c0,2.1392-1.0899,3.7549-2.1997,4.4009
		l2.8867,4.9658h-4.9859l-2.06-4.2387h-1.231v4.2387h-4.4209V112.8421z M-4.4307,119.5847c1.1299,0,1.7158-0.5048,1.7158-1.4936
		c0-1.0103-0.646-1.5142-1.7768-1.5142h-1.231v3.0078H-4.4307z"/>
	<polygon class="st3" points="16.4013,112.8416 25.1621,112.8416 25.1621,114.8806 18.6621,114.8806 18.6621,119.0799 
		24.5161,119.0799 24.5161,121.1389 18.6621,121.1389 18.6821,125.3377 25.1831,125.3377 25.1831,127.3767 16.4013,127.3767 	"/>
	<path class="st3" d="M39.3373,112.8416h4.7232c4.0991,0,5.814,1.9385,5.814,4.9868c0,3.1699-1.856,4.9458-5.814,4.9458h-2.4419
		v4.6035h-2.2813V112.8416z M44.1015,120.7351c2.4428,0,3.4322-1.0097,3.4322-2.9067c0-1.7769-0.9894-2.9468-3.4322-2.9468h-2.4829
		v5.8535H44.1015z"/>
	<path class="st3" d="M63.4853,121.8455v-9.0039h2.2808v8.8828c0,2.4233,1.1313,3.8555,3.8564,3.8555
		c2.7455,0,3.896-1.4322,3.896-3.8555v-8.8828h2.2808v9.0039c0,3.6943-2.2808,5.7939-6.1768,5.7939
		C65.746,127.6394,63.4853,125.5799,63.4853,121.8455z"/>
	<path class="st3" d="M90.58,112.8421h4.9262c3.5928,0,4.7842,1.4936,4.7842,3.6753c0,1.6547-0.7462,2.9057-2.2412,3.3296v0.121
		c1.7367,0.4439,2.8071,1.5142,2.8071,3.4122c0,2.9682-2.1811,3.9965-5.3301,3.9965H90.58V112.8421z M95.4653,125.3777
		c1.8369,0,3.0488-0.4023,3.0488-2.1797c0-1.4726-1.1108-2.2412-2.9467-2.2412h-2.7061v4.4209H95.4653z M95.5263,118.9988
		c1.393,0,2.4229-0.7471,2.4229-2.1396c0-1.4131-0.9487-2.0181-2.6851-2.0181h-2.3828v4.1577H95.5263z"/>
	<polygon class="st3" points="114.9095,112.822 117.1903,112.822 117.2313,125.3172 123.1665,125.3172 123.1665,127.3562 
		114.9095,127.3562 	"/>
	<polygon class="st3" points="136.7959,112.8416 139.0571,112.8416 139.077,127.3567 136.7959,127.3567 	"/>
	<polygon class="st3" points="154.0385,112.8416 156.3193,112.8416 156.3193,118.9178 159.1254,118.9178 163.1835,112.8416 
		165.9086,112.8416 161.0434,119.948 166.2513,127.3767 163.5263,127.3767 159.1053,121.1389 156.3193,121.1389 156.3193,127.3767 
		154.0385,127.3767 	"/>
	<polygon class="st3" points="178.7924,112.8416 188.5835,112.8416 188.5835,116.2737 183.2133,116.2737 183.2133,118.3328 
		187.9975,118.3328 187.9975,121.8855 183.2133,121.8855 183.2133,123.9461 188.5835,123.9461 188.5835,127.3767 178.7924,127.3767 
			"/>
	<path class="st3" d="M-10.0967,160.5382v-2.2207c1.5342,0.9492,3.5332,1.4336,5.0469,1.4336c2.018,0,3.1093-0.7876,3.1093-2.1407
		c0-1.7763-1.9794-2.0581-4.038-2.7241c-2.0391-0.626-3.896-1.6157-3.896-4.2397c0-2.625,2.0786-3.9771,4.9858-3.9771
		c1.7769,0,3.291,0.3628,4.583,1.0899v2.1801c-1.191-0.8071-2.8472-1.2314-4.2402-1.2314c-1.9776,0-2.9868,0.6465-2.9868,1.918
		c0,1.4336,1.2109,1.8374,2.7251,2.3012c2.3418,0.7071,5.2089,1.4131,5.2089,4.583c0,2.8462-2.1201,4.2789-5.249,4.2789
		C-6.4839,161.7892-8.5625,161.3863-10.0967,160.5382z"/>
	<polygon class="st3" points="14.6162,146.9522 16.8974,146.9522 16.938,159.4474 22.873,159.4474 22.873,161.4864 
		14.6162,161.4864 	"/>
	<path class="st3" d="M35.8764,154.2394c0-4.3809,2.9073-7.5699,7.4291-7.5699c4.5421,0,7.4489,3.189,7.4489,7.5699
		c0,4.3603-2.8867,7.5913-7.4489,7.5913C38.7836,161.8307,35.8764,158.5997,35.8764,154.2394z M48.3926,154.2394
		c0-3.3106-1.938-5.5308-5.107-5.5308c-3.1089,0-5.0669,2.2202-5.0669,5.5308c0,3.3925,2.0181,5.5312,5.0868,5.5312
		C46.4756,159.7706,48.3926,157.6319,48.3926,154.2394z"/>
	<polygon class="st3" points="63.5171,146.9718 66.0399,146.9718 70.6229,159.3263 70.744,159.3263 75.327,146.9718 
		77.6678,146.9718 72.0161,161.5069 69.1688,161.5069 	"/>
	<polygon class="st3" points="91.3594,146.9718 100.12,146.9718 100.12,149.0108 93.62,149.0108 93.62,153.2101 99.4741,153.2101 
		99.4741,155.2691 93.62,155.2691 93.6401,159.4679 100.1411,159.4679 100.1411,161.5069 91.3594,161.5069 	"/>
	<polygon class="st3" points="114.5984,146.9923 116.9203,146.9923 124.5306,157.6515 124.6513,157.6515 124.6117,146.9923 
		126.8925,146.9923 126.8925,161.5074 124.7122,161.5074 116.9403,150.8282 116.8398,150.8282 116.8793,161.5074 114.5984,161.5074 
			"/>
	<polygon class="st3" points="142.1586,146.9718 144.4198,146.9718 144.4398,161.4869 142.1586,161.4869 	"/>
	<path class="st3" d="M158.2905,161.5675v-2.1397c0.4639,0.1211,0.9082,0.1817,1.353,0.1817c1.5142,0,2.564-0.586,2.564-2.9278
		v-9.7099h2.2798v9.9726c0,3.3711-1.6138,4.8252-4.3799,4.8252C159.4413,161.7696,158.8553,161.7101,158.2905,161.5675z"/>
	<polygon class="st3" points="179.6113,146.9718 188.3725,146.9718 188.3725,149.0108 181.8725,149.0108 181.8725,153.2101 
		187.7264,153.2101 187.7264,155.2691 181.8725,155.2691 181.8925,159.4679 188.3934,159.4679 188.3934,161.5069 179.6113,161.5069 
			"/>
	<rect x="60.5857" y="176.0368" class="st3" width="58.0989" height="4.4224"/>
	<path class="st3" d="M-10.1861,92.3782v-4.2388c1.6958,1.0288,3.876,1.7163,5.3902,1.7163c0.9687,0,1.4536-0.3242,1.4536-0.9091
		c0-0.8072-1.1309-0.8682-2.2817-1.2315c-1.917-0.6055-4.481-1.5547-4.481-4.8247c0-2.8257,2.1596-4.4009,5.4497-4.4009
		c2.019,0,3.937,0.3838,5.2891,0.9287v4.2193c-1.1499-0.687-3.3301-1.4341-4.7427-1.4341c-0.8482,0-1.292,0.2432-1.292,0.8281
		c0,0.666,0.7666,0.8477,1.6138,1.0899c2.0189,0.5859,5.209,1.2734,5.209,4.7651c0,3.1689-2.1602,4.7231-5.9151,4.7231
		C-6.9971,93.6096-9.1973,92.8831-10.1861,92.3782z"/>
	<path class="st3" d="M19.1914,86.0598c0-4.3198,2.9472-7.5908,7.792-7.5908c4.8452,0,7.813,3.271,7.813,7.5908
		c0,4.4414-2.8672,7.5503-7.773,7.5503C22.0985,93.6101,19.1914,90.5012,19.1914,86.0598z M30.2134,86.0598
		c-0.021-2.4414-1.3731-3.6128-3.23-3.6128c-1.8369,0-3.21,1.1714-3.21,3.6128c0,2.3423,1.333,3.5933,3.21,3.5933
		C28.9214,89.6531,30.2134,88.4021,30.2134,86.0598z"/>
	<path class="st3" d="M53.2724,78.7722h5.5918c4.9663,0,7.5503,2.7461,7.5503,7.2671c0,4.523-2.584,7.2676-7.5503,7.2676h-5.5918
		V78.7722z M58.9853,89.471c1.8369,0,2.8462-1.0689,2.8462-3.4317c0-2.4424-1.1304-3.4311-2.8462-3.4311h-1.292v6.8628H58.9853z"/>
	<path class="st3" d="M84.4863,92.3782v-4.2388c1.6958,1.0288,3.876,1.7163,5.3901,1.7163c0.9688,0,1.4537-0.3242,1.4537-0.9091
		c0-0.8072-1.1309-0.8682-2.2818-1.2315c-1.917-0.6055-4.4809-1.5547-4.4809-4.8247c0-2.8257,2.1601-4.4009,5.4502-4.4009
		c2.0184,0,3.9365,0.3838,5.2885,0.9287v4.2193c-1.1499-0.687-3.3296-1.4341-4.7426-1.4341c-0.8482,0-1.292,0.2432-1.292,0.8281
		c0,0.666,0.7666,0.8477,1.6137,1.0899c2.0191,0.5859,5.209,1.2734,5.209,4.7651c0,3.1689-2.1597,4.7231-5.915,4.7231
		C87.6753,93.6096,85.4751,92.8831,84.4863,92.3782z"/>
	<polygon class="st3" points="117.2753,82.9104 113.6415,82.9104 113.6415,78.7718 125.3706,78.7718 125.3706,82.9104 
		121.7163,82.9104 121.7163,93.3069 117.2953,93.3069 	"/>
	<polygon class="st3" points="142.3324,78.7718 147.0565,78.7718 149.7417,88.0789 149.9221,88.0789 152.5471,78.7718 
		157.1693,78.7718 152.2845,93.3069 147.2173,93.3069 	"/>
	<path class="st3" d="M174.5813,86.0598c0-4.3198,2.9467-7.5908,7.792-7.5908c4.8447,0,7.8129,3.271,7.8129,7.5908
		c0,4.4414-2.8671,7.5503-7.7729,7.5503C177.4879,93.6101,174.5813,90.5012,174.5813,86.0598z M185.6031,86.0598
		c-0.021-2.4414-1.373-3.6128-3.2299-3.6128c-1.837,0-3.21,1.1714-3.21,3.6128c0,2.3423,1.333,3.5933,3.21,3.5933
		C184.3111,89.6531,185.6031,88.4021,185.6031,86.0598z"/>
	<path class="st4" d="M118.3914-3.1009c-0.512-0.2478-2.0819-0.9531-2.0819-0.9531c-8.3709-3.6728-17.5401-5.6111-26.6739-5.6111
		c-9.1345,0-18.3057,1.9384-26.6766,5.6111c-0.0203,0.0066-1.5693,0.7054-2.0825,0.9531c-0.1881,0.0891-0.3042,0.2877-0.2904,0.4949
		l2.0898,33.0691c0.5801,9.1719,4.4778,17.801,10.9791,24.3003c4.3991,4.3997,9.8726,7.6701,15.8332,9.4597
		c0.0465,0.0157,0.0977,0.0223,0.1475,0.0223c0.0505,0,0.0983-0.0066,0.1468-0.0223c5.9586-1.7896,11.4347-5.0599,15.8338-9.4597
		c6.4994-6.4993,10.3983-15.1285,10.9765-24.3003l2.0904-33.0691C118.6962-2.8132,118.5821-3.0118,118.3914-3.1009z M92.5994-2.1898
		L95.0794-1.92l1.0064-2.2826L97.0922-1.92l2.48-0.2697l-1.4735,2.0128l1.4735,2.0129l-2.48-0.2697l-1.0064,2.2826l-1.0064-2.2826
		l-2.4799,0.2697l1.4735-2.0129L92.5994-2.1898z M89.6345,4.4061l1.0064,2.2826l2.4799-0.2697l-1.4735,2.0128l1.4735,2.0128
		l-2.4799-0.2697l-1.0064,2.2826l-1.0064-2.2826l-2.4799,0.2697l1.4735-2.0128l-1.4735-2.0128l2.4799,0.2697L89.6345,4.4061z
		 M79.6763-2.1898L82.1563-1.92l1.0064-2.2826L84.1691-1.92l2.4799-0.2697l-1.4735,2.0128l1.4735,2.0129l-2.4799-0.2697
		l-1.0064,2.2826l-1.0064-2.2826l-2.4799,0.2697l1.4735-2.0129L79.6763-2.1898z M79.6948,21.6847l3.9382,5.1711l5.9955-11.7883
		l6.0089,11.7883l3.9368-5.1711l9.9396,13.0949c-0.0033,0.4641-0.0478,1.1609-0.2425,2.0177
		c-0.1757,0.7729-0.5664,1.6984-1.7188,2.881c-1.1543,1.1839-2.875,1.9154-4.6253,1.9154c-1.1078,0-2.2019-0.2832-3.1694-0.8187
		c-0.607-0.3513-1.1563-0.5788-1.7253-0.7315c-0.5788-0.1554-1.1701-0.2321-1.7613-0.2321c-1.1727,0-2.3363,0.312-3.3674,0.9046
		c-0.9924,0.5742-2.1219,0.8777-3.2677,0.8777c-1.1471,0-2.2766-0.3035-3.2716-0.8777c-1.0285-0.5926-2.194-0.9046-3.3673-0.9046
		c-0.5906,0-1.1819,0.0767-1.7581,0.2321c-0.5696,0.1527-1.119,0.3802-1.7279,0.7315c-0.9649,0.5356-2.0616,0.8187-3.1694,0.8187
		c-1.7482,0-3.4703-0.7315-4.6239-1.9154c-1.1517-1.1826-1.5437-2.1081-1.7194-2.881c-0.1927-0.8568-0.2399-1.5536-0.2432-2.0177
		L79.6948,21.6847z M101.2374,45.2094c-0.5539-0.1494-1.0862-0.3704-1.5817-0.6542c-2.0537-1.1839-4.7039-1.1826-6.753,0.0013
		c-1.0075,0.5821-2.1324,0.8515-3.2677,0.8502c-1.1353,0.0013-2.2582-0.2681-3.2677-0.8502c-2.0504-1.1839-4.7-1.1852-6.7517-0.0013
		c-0.4975,0.2838-1.0298,0.5047-1.5817,0.6542c-1.469,0.3894-3.0415,0.2583-4.4548-0.3887l-0.2924-0.139
		c-0.4674-0.7604-0.919-1.5385-1.3222-2.3342c0.3809,0.1481,0.7001,0.3002,1.0016,0.4733c1.0292,0.5945,2.1933,0.9092,3.366,0.9092
		c0.59,0,1.1806-0.0793,1.7587-0.2341c0.5644-0.1501,1.1131-0.3776,1.625-0.6752c0.997-0.5716,2.1284-0.8764,3.271-0.8764
		c1.1491,0,2.2786,0.3035,3.271,0.8764c1.0285,0.5945,2.192,0.9092,3.3673,0.9092c1.1943,0,2.3578-0.3147,3.389-0.9092
		c0.9918-0.5729,2.1219-0.8764,3.2684-0.8764c1.1452,0,2.2766,0.3048,3.2716,0.8764c0.5139,0.2976,1.06,0.5251,1.6263,0.6752
		c0.5755,0.1547,1.1668,0.2341,1.7561,0.2341c1.1727,0,2.3395-0.3147,3.3686-0.9092c0.2996-0.173,0.6208-0.3251,0.9459-0.4503
		c-0.3468,0.7728-0.7991,1.5509-1.2685,2.3113l-0.293,0.139C104.2789,45.4677,102.7071,45.5988,101.2374,45.2094z M104.0554,47.4683
		c-0.7715,0.9892-1.6106,1.941-2.5001,2.8292c-3.3241,3.3247-7.4321,5.8845-11.8811,7.4046
		c-4.5276-1.5201-8.6357-4.0799-11.9591-7.4046c-0.8882-0.8882-1.7292-1.84-2.5014-2.8292c1.0029,0.16,1.9528,0.1128,2.877-0.1357
		c0.5703-0.1534,1.1176-0.3789,1.6263-0.6725c1.9868-1.1491,4.5558-1.1458,6.542-0.002c1.0416,0.6017,2.1953,0.9085,3.366,0.9085
		c1.1897,0,2.3454-0.3068,3.387-0.9085c1.9862-1.1439,4.5558-1.1471,6.542,0.002c0.5093,0.2937,1.0541,0.5192,1.6263,0.6725
		c0.9243,0.2485,1.8721,0.2956,2.8226,0.1462L104.0554,47.4683z M114.8359,30.3084c-0.5454,8.6671-4.23,16.8223-10.3728,22.9651
		c-4.1251,4.1232-9.2472,7.1981-14.8276,8.8972c-5.5797-1.6991-10.7058-4.774-14.8282-8.8972
		c-6.1421-6.1414-9.8261-14.296-10.3728-22.9651L62.4261-1.4739l1.4933-0.6188l2.0432,32.2923
		c0.5185,8.2706,4.0347,16.0967,9.9283,21.9903c3.8832,3.8832,8.6062,6.7347,13.7427,8.3755
		c5.1372-1.6407,9.8621-4.4922,13.746-8.3755c5.8937-5.8937,9.4098-13.7198,9.9276-21.9903l2.0413-32.2923
		c0.4949,0.2026,1.235,0.4956,1.4965,0.6201L114.8359,30.3084z"/>
</g>
<g id="RGB_negativ" class="st0">
	<path class="st1" d="M-10.1436,112.8421l5.7129,0.02c4.0781,0,6.2979,1.6758,6.2979,5.1479c0,2.1392-1.0899,3.7549-2.1997,4.4009
		l2.8867,4.9658h-4.9859l-2.06-4.2387h-1.231v4.2387h-4.4209V112.8421z M-4.4307,119.5847c1.1299,0,1.7158-0.5048,1.7158-1.4936
		c0-1.0103-0.646-1.5142-1.7768-1.5142h-1.231v3.0078H-4.4307z"/>
	<polygon class="st1" points="16.4013,112.8416 25.1621,112.8416 25.1621,114.8806 18.6621,114.8806 18.6621,119.0799 
		24.5161,119.0799 24.5161,121.1389 18.6621,121.1389 18.6821,125.3377 25.1831,125.3377 25.1831,127.3767 16.4013,127.3767 	"/>
	<path class="st1" d="M39.3373,112.8416h4.7232c4.0991,0,5.814,1.9385,5.814,4.9868c0,3.1699-1.856,4.9458-5.814,4.9458h-2.4419
		v4.6035h-2.2813V112.8416z M44.1015,120.7351c2.4428,0,3.4322-1.0097,3.4322-2.9067c0-1.7769-0.9894-2.9468-3.4322-2.9468h-2.4829
		v5.8535H44.1015z"/>
	<path class="st1" d="M63.4853,121.8455v-9.0039h2.2808v8.8828c0,2.4233,1.1313,3.8555,3.8564,3.8555
		c2.7455,0,3.896-1.4322,3.896-3.8555v-8.8828h2.2808v9.0039c0,3.6943-2.2808,5.7939-6.1768,5.7939
		C65.746,127.6394,63.4853,125.5799,63.4853,121.8455z"/>
	<path class="st1" d="M90.58,112.8421h4.9262c3.5928,0,4.7842,1.4936,4.7842,3.6753c0,1.6547-0.7462,2.9057-2.2412,3.3296v0.121
		c1.7367,0.4439,2.8071,1.5142,2.8071,3.4122c0,2.9682-2.1811,3.9965-5.3301,3.9965H90.58V112.8421z M95.4653,125.3777
		c1.8369,0,3.0488-0.4023,3.0488-2.1797c0-1.4726-1.1108-2.2412-2.9467-2.2412h-2.7061v4.4209H95.4653z M95.5263,118.9988
		c1.393,0,2.4229-0.7471,2.4229-2.1396c0-1.4131-0.9487-2.0181-2.6851-2.0181h-2.3828v4.1577H95.5263z"/>
	<polygon class="st1" points="114.9095,112.822 117.1903,112.822 117.2313,125.3172 123.1665,125.3172 123.1665,127.3562 
		114.9095,127.3562 	"/>
	<polygon class="st1" points="136.7959,112.8416 139.0571,112.8416 139.077,127.3567 136.7959,127.3567 	"/>
	<polygon class="st1" points="154.0385,112.8416 156.3193,112.8416 156.3193,118.9178 159.1254,118.9178 163.1835,112.8416 
		165.9086,112.8416 161.0434,119.948 166.2513,127.3767 163.5263,127.3767 159.1053,121.1389 156.3193,121.1389 156.3193,127.3767 
		154.0385,127.3767 	"/>
	<polygon class="st1" points="178.7924,112.8416 188.5835,112.8416 188.5835,116.2737 183.2133,116.2737 183.2133,118.3328 
		187.9975,118.3328 187.9975,121.8855 183.2133,121.8855 183.2133,123.9461 188.5835,123.9461 188.5835,127.3767 178.7924,127.3767 
			"/>
	<path class="st1" d="M-10.0967,160.5382v-2.2207c1.5342,0.9492,3.5332,1.4336,5.0469,1.4336c2.018,0,3.1093-0.7876,3.1093-2.1407
		c0-1.7763-1.9794-2.0581-4.038-2.7241c-2.0391-0.626-3.896-1.6157-3.896-4.2397c0-2.625,2.0786-3.9771,4.9858-3.9771
		c1.7769,0,3.291,0.3628,4.583,1.0899v2.1801c-1.191-0.8071-2.8472-1.2314-4.2402-1.2314c-1.9776,0-2.9868,0.6465-2.9868,1.918
		c0,1.4336,1.2109,1.8374,2.7251,2.3012c2.3418,0.7071,5.2089,1.4131,5.2089,4.583c0,2.8462-2.1201,4.2789-5.249,4.2789
		C-6.4839,161.7892-8.5625,161.3863-10.0967,160.5382z"/>
	<polygon class="st1" points="14.6162,146.9522 16.8974,146.9522 16.938,159.4474 22.873,159.4474 22.873,161.4864 
		14.6162,161.4864 	"/>
	<path class="st1" d="M35.8764,154.2394c0-4.3809,2.9073-7.5699,7.4291-7.5699c4.5421,0,7.4489,3.189,7.4489,7.5699
		c0,4.3603-2.8867,7.5913-7.4489,7.5913C38.7836,161.8307,35.8764,158.5997,35.8764,154.2394z M48.3926,154.2394
		c0-3.3106-1.938-5.5308-5.107-5.5308c-3.1089,0-5.0669,2.2202-5.0669,5.5308c0,3.3925,2.0181,5.5312,5.0868,5.5312
		C46.4756,159.7706,48.3926,157.6319,48.3926,154.2394z"/>
	<polygon class="st1" points="63.5171,146.9718 66.0399,146.9718 70.6229,159.3263 70.744,159.3263 75.327,146.9718 
		77.6678,146.9718 72.0161,161.5069 69.1688,161.5069 	"/>
	<polygon class="st1" points="91.3594,146.9718 100.12,146.9718 100.12,149.0108 93.62,149.0108 93.62,153.2101 99.4741,153.2101 
		99.4741,155.2691 93.62,155.2691 93.6401,159.4679 100.1411,159.4679 100.1411,161.5069 91.3594,161.5069 	"/>
	<polygon class="st1" points="114.5984,146.9923 116.9203,146.9923 124.5306,157.6515 124.6513,157.6515 124.6117,146.9923 
		126.8925,146.9923 126.8925,161.5074 124.7122,161.5074 116.9403,150.8282 116.8398,150.8282 116.8793,161.5074 114.5984,161.5074 
			"/>
	<polygon class="st1" points="142.1586,146.9718 144.4198,146.9718 144.4398,161.4869 142.1586,161.4869 	"/>
	<path class="st1" d="M158.2905,161.5675v-2.1397c0.4639,0.1211,0.9082,0.1817,1.353,0.1817c1.5142,0,2.564-0.586,2.564-2.9278
		v-9.7099h2.2798v9.9726c0,3.3711-1.6138,4.8252-4.3799,4.8252C159.4413,161.7696,158.8553,161.7101,158.2905,161.5675z"/>
	<polygon class="st1" points="179.6113,146.9718 188.3725,146.9718 188.3725,149.0108 181.8725,149.0108 181.8725,153.2101 
		187.7264,153.2101 187.7264,155.2691 181.8725,155.2691 181.8925,159.4679 188.3934,159.4679 188.3934,161.5069 179.6113,161.5069 
			"/>
	<linearGradient id="SVGID_1_" gradientUnits="userSpaceOnUse" x1="60.5857" y1="178.248" x2="118.6846" y2="178.248">
		<stop  offset="0" style="stop-color:#B8904C"/>
		<stop  offset="0.3543" style="stop-color:#FAE788"/>
		<stop  offset="0.5432" style="stop-color:#E4BD67"/>
		<stop  offset="1" style="stop-color:#E4BD67"/>
	</linearGradient>
	<rect x="60.5857" y="176.0368" class="st5" width="58.0989" height="4.4224"/>
	<path class="st1" d="M-10.1861,92.3782v-4.2388c1.6958,1.0288,3.876,1.7163,5.3902,1.7163c0.9687,0,1.4536-0.3242,1.4536-0.9091
		c0-0.8072-1.1309-0.8682-2.2817-1.2315c-1.917-0.6055-4.481-1.5547-4.481-4.8247c0-2.8257,2.1596-4.4009,5.4497-4.4009
		c2.019,0,3.937,0.3838,5.2891,0.9287v4.2193c-1.1499-0.687-3.3301-1.4341-4.7427-1.4341c-0.8482,0-1.292,0.2432-1.292,0.8281
		c0,0.666,0.7666,0.8477,1.6138,1.0899c2.0189,0.5859,5.209,1.2734,5.209,4.7651c0,3.1689-2.1602,4.7231-5.9151,4.7231
		C-6.9971,93.6096-9.1973,92.8831-10.1861,92.3782z"/>
	<path class="st1" d="M19.1914,86.0598c0-4.3198,2.9472-7.5908,7.792-7.5908c4.8452,0,7.813,3.271,7.813,7.5908
		c0,4.4414-2.8672,7.5503-7.773,7.5503C22.0985,93.6101,19.1914,90.5012,19.1914,86.0598z M30.2134,86.0598
		c-0.021-2.4414-1.3731-3.6128-3.23-3.6128c-1.8369,0-3.21,1.1714-3.21,3.6128c0,2.3423,1.333,3.5933,3.21,3.5933
		C28.9214,89.6531,30.2134,88.4021,30.2134,86.0598z"/>
	<path class="st1" d="M53.2724,78.7722h5.5918c4.9663,0,7.5503,2.7461,7.5503,7.2671c0,4.523-2.584,7.2676-7.5503,7.2676h-5.5918
		V78.7722z M58.9853,89.471c1.8369,0,2.8462-1.0689,2.8462-3.4317c0-2.4424-1.1304-3.4311-2.8462-3.4311h-1.292v6.8628H58.9853z"/>
	<path class="st1" d="M84.4863,92.3782v-4.2388c1.6958,1.0288,3.876,1.7163,5.3901,1.7163c0.9688,0,1.4537-0.3242,1.4537-0.9091
		c0-0.8072-1.1309-0.8682-2.2818-1.2315c-1.917-0.6055-4.4809-1.5547-4.4809-4.8247c0-2.8257,2.1601-4.4009,5.4502-4.4009
		c2.0184,0,3.9365,0.3838,5.2885,0.9287v4.2193c-1.1499-0.687-3.3296-1.4341-4.7426-1.4341c-0.8482,0-1.292,0.2432-1.292,0.8281
		c0,0.666,0.7666,0.8477,1.6137,1.0899c2.0191,0.5859,5.209,1.2734,5.209,4.7651c0,3.1689-2.1597,4.7231-5.915,4.7231
		C87.6753,93.6096,85.4751,92.8831,84.4863,92.3782z"/>
	<polygon class="st1" points="117.2753,82.9104 113.6415,82.9104 113.6415,78.7718 125.3706,78.7718 125.3706,82.9104 
		121.7163,82.9104 121.7163,93.3069 117.2953,93.3069 	"/>
	<polygon class="st1" points="142.3324,78.7718 147.0565,78.7718 149.7417,88.0789 149.9221,88.0789 152.5471,78.7718 
		157.1693,78.7718 152.2845,93.3069 147.2173,93.3069 	"/>
	<path class="st1" d="M174.5813,86.0598c0-4.3198,2.9467-7.5908,7.792-7.5908c4.8447,0,7.8129,3.271,7.8129,7.5908
		c0,4.4414-2.8671,7.5503-7.7729,7.5503C177.4879,93.6101,174.5813,90.5012,174.5813,86.0598z M185.6031,86.0598
		c-0.021-2.4414-1.373-3.6128-3.2299-3.6128c-1.837,0-3.21,1.1714-3.21,3.6128c0,2.3423,1.333,3.5933,3.21,3.5933
		C184.3111,89.6531,185.6031,88.4021,185.6031,86.0598z"/>
	<linearGradient id="SVGID_2_" gradientUnits="userSpaceOnUse" x1="60.5849" y1="27.2901" x2="118.6841" y2="27.2901">
		<stop  offset="0" style="stop-color:#B8904C"/>
		<stop  offset="0.3543" style="stop-color:#FAE788"/>
		<stop  offset="0.5432" style="stop-color:#E4BD67"/>
		<stop  offset="1" style="stop-color:#E4BD67"/>
	</linearGradient>
	<path class="st6" d="M118.3914-3.1009c-0.512-0.2478-2.0819-0.9531-2.0819-0.9531c-8.3709-3.6728-17.5401-5.6111-26.6739-5.6111
		c-9.1345,0-18.3057,1.9384-26.6766,5.6111c-0.0203,0.0066-1.5693,0.7054-2.0825,0.9531c-0.1881,0.0891-0.3042,0.2877-0.2904,0.4949
		l2.0898,33.0691c0.5801,9.1719,4.4778,17.801,10.9791,24.3003c4.3991,4.3997,9.8726,7.6701,15.8332,9.4597
		c0.0465,0.0157,0.0977,0.0223,0.1475,0.0223c0.0505,0,0.0983-0.0066,0.1468-0.0223c5.9586-1.7896,11.4347-5.0599,15.8338-9.4597
		c6.4994-6.4993,10.3983-15.1285,10.9765-24.3003l2.0904-33.0691C118.6962-2.8132,118.5821-3.0118,118.3914-3.1009z M92.5994-2.1898
		L95.0794-1.92l1.0064-2.2826L97.0922-1.92l2.48-0.2697l-1.4735,2.0128l1.4735,2.0129l-2.48-0.2697l-1.0064,2.2826l-1.0064-2.2826
		l-2.4799,0.2697l1.4735-2.0129L92.5994-2.1898z M89.6345,4.4061l1.0064,2.2826l2.4799-0.2697l-1.4735,2.0128l1.4735,2.0128
		l-2.4799-0.2697l-1.0064,2.2826l-1.0064-2.2826l-2.4799,0.2697l1.4735-2.0128l-1.4735-2.0128l2.4799,0.2697L89.6345,4.4061z
		 M79.6763-2.1898L82.1563-1.92l1.0064-2.2826L84.1691-1.92l2.4799-0.2697l-1.4735,2.0128l1.4735,2.0129l-2.4799-0.2697
		l-1.0064,2.2826l-1.0064-2.2826l-2.4799,0.2697l1.4735-2.0129L79.6763-2.1898z M79.6948,21.6847l3.9382,5.1711l5.9955-11.7883
		l6.0089,11.7883l3.9368-5.1711l9.9396,13.0949c-0.0033,0.4641-0.0478,1.1609-0.2425,2.0177
		c-0.1757,0.7729-0.5664,1.6984-1.7188,2.881c-1.1543,1.1839-2.875,1.9154-4.6253,1.9154c-1.1078,0-2.2019-0.2832-3.1694-0.8187
		c-0.607-0.3513-1.1563-0.5788-1.7253-0.7315c-0.5788-0.1554-1.1701-0.2321-1.7613-0.2321c-1.1727,0-2.3363,0.312-3.3674,0.9046
		c-0.9924,0.5742-2.1219,0.8777-3.2677,0.8777c-1.1471,0-2.2766-0.3035-3.2716-0.8777c-1.0285-0.5926-2.194-0.9046-3.3673-0.9046
		c-0.5906,0-1.1819,0.0767-1.7581,0.2321c-0.5696,0.1527-1.119,0.3802-1.7279,0.7315c-0.9649,0.5356-2.0616,0.8187-3.1694,0.8187
		c-1.7482,0-3.4703-0.7315-4.6239-1.9154c-1.1517-1.1826-1.5437-2.1081-1.7194-2.881c-0.1927-0.8568-0.2399-1.5536-0.2432-2.0177
		L79.6948,21.6847z M101.2374,45.2094c-0.5539-0.1494-1.0862-0.3704-1.5817-0.6542c-2.0537-1.1839-4.7039-1.1826-6.753,0.0013
		c-1.0075,0.5821-2.1324,0.8515-3.2677,0.8502c-1.1353,0.0013-2.2582-0.2681-3.2677-0.8502c-2.0504-1.1839-4.7-1.1852-6.7517-0.0013
		c-0.4975,0.2838-1.0298,0.5047-1.5817,0.6542c-1.469,0.3894-3.0415,0.2583-4.4548-0.3887l-0.2924-0.139
		c-0.4674-0.7604-0.919-1.5385-1.3222-2.3342c0.3809,0.1481,0.7001,0.3002,1.0016,0.4733c1.0292,0.5945,2.1933,0.9092,3.366,0.9092
		c0.59,0,1.1806-0.0793,1.7587-0.2341c0.5644-0.1501,1.1131-0.3776,1.625-0.6752c0.997-0.5716,2.1284-0.8764,3.271-0.8764
		c1.1491,0,2.2786,0.3035,3.271,0.8764c1.0285,0.5945,2.192,0.9092,3.3673,0.9092c1.1943,0,2.3578-0.3147,3.389-0.9092
		c0.9918-0.5729,2.1219-0.8764,3.2684-0.8764c1.1452,0,2.2766,0.3048,3.2716,0.8764c0.5139,0.2976,1.06,0.5251,1.6263,0.6752
		c0.5755,0.1547,1.1668,0.2341,1.7561,0.2341c1.1727,0,2.3395-0.3147,3.3686-0.9092c0.2996-0.173,0.6208-0.3251,0.9459-0.4503
		c-0.3468,0.7728-0.7991,1.5509-1.2685,2.3113l-0.293,0.139C104.2789,45.4677,102.7071,45.5988,101.2374,45.2094z M104.0554,47.4683
		c-0.7715,0.9892-1.6106,1.941-2.5001,2.8292c-3.3241,3.3247-7.4321,5.8845-11.8811,7.4046
		c-4.5276-1.5201-8.6357-4.0799-11.9591-7.4046c-0.8882-0.8882-1.7292-1.84-2.5014-2.8292c1.0029,0.16,1.9528,0.1128,2.877-0.1357
		c0.5703-0.1534,1.1176-0.3789,1.6263-0.6725c1.9868-1.1491,4.5558-1.1458,6.542-0.002c1.0416,0.6017,2.1953,0.9085,3.366,0.9085
		c1.1897,0,2.3454-0.3068,3.387-0.9085c1.9862-1.1439,4.5558-1.1471,6.542,0.002c0.5093,0.2937,1.0541,0.5192,1.6263,0.6725
		c0.9243,0.2485,1.8721,0.2956,2.8226,0.1462L104.0554,47.4683z M114.8359,30.3084c-0.5454,8.6671-4.23,16.8223-10.3728,22.9651
		c-4.1251,4.1232-9.2472,7.1981-14.8276,8.8972c-5.5797-1.6991-10.7058-4.774-14.8282-8.8972
		c-6.1421-6.1414-9.8261-14.296-10.3728-22.9651L62.4261-1.4739l1.4933-0.6188l2.0432,32.2923
		c0.5185,8.2706,4.0347,16.0967,9.9283,21.9903c3.8832,3.8832,8.6062,6.7347,13.7427,8.3755
		c5.1372-1.6407,9.8621-4.4922,13.746-8.3755c5.8937-5.8937,9.4098-13.7198,9.9276-21.9903l2.0413-32.2923
		c0.4949,0.2026,1.235,0.4956,1.4965,0.6201L114.8359,30.3084z"/>
</g>
<g id="RGB">
	<path class="st7" d="M0.0382,110.0517l5.1321,0.018c3.6635,0,5.6576,1.5054,5.6576,4.6245c0,1.9217-0.9791,3.3731-1.9761,3.9535
		l2.5932,4.4609H6.966l-1.8506-3.8077H4.0096v3.8077H0.0382V110.0517z M5.1702,116.1087c1.015,0,1.5414-0.4535,1.5414-1.3417
		c0-0.9076-0.5803-1.3602-1.5961-1.3602H4.0096v2.702H5.1702z"/>
	<polygon class="st7" points="23.8842,110.0512 31.7543,110.0512 31.7543,111.8829 25.9151,111.8829 25.9151,115.6553 
		31.1739,115.6553 31.1739,117.5049 25.9151,117.5049 25.9331,121.2768 31.7731,121.2768 31.7731,123.1085 23.8842,123.1085 	"/>
	<path class="st7" d="M44.4882,110.0512h4.243c3.6823,0,5.2229,1.7414,5.2229,4.4798c0,2.8476-1.6673,4.443-5.2229,4.443h-2.1936
		v4.1354h-2.0494V110.0512z M48.7681,117.1422c2.1944,0,3.0832-0.907,3.0832-2.6112c0-1.5962-0.8888-2.6472-3.0832-2.6472h-2.2305
		v5.2584H48.7681z"/>
	<path class="st7" d="M66.1811,118.1397v-8.0885H68.23v7.9797c0,2.1769,1.0163,3.4635,3.4643,3.4635
		c2.4664,0,3.4999-1.2866,3.4999-3.4635v-7.9797h2.0489v8.0885c0,3.3187-2.0489,5.2048-5.5488,5.2048
		C68.212,123.3445,66.1811,121.4944,66.1811,118.1397z"/>
	<path class="st7" d="M90.5211,110.0517h4.4253c3.2275,0,4.2978,1.3417,4.2978,3.3016c0,1.4865-0.6703,2.6103-2.0133,2.9911v0.1087
		c1.5601,0.3988,2.5217,1.3602,2.5217,3.0653c0,2.6664-1.9593,3.5902-4.7882,3.5902h-4.4433V110.0517z M94.9096,121.3127
		c1.6501,0,2.7388-0.3614,2.7388-1.9581c0-1.3229-0.9979-2.0133-2.6471-2.0133h-2.431v3.9714H94.9096z M94.9644,115.5824
		c1.2514,0,2.1766-0.6711,2.1766-1.9221c0-1.2694-0.8522-1.8129-2.4121-1.8129h-2.1405v3.735H94.9644z"/>
	<polygon class="st7" points="112.3769,110.0336 114.4258,110.0336 114.4627,121.2584 119.7943,121.2584 119.7943,123.0901 
		112.3769,123.0901 	"/>
	<polygon class="st7" points="132.038,110.0512 134.0693,110.0512 134.0872,123.0905 132.038,123.0905 	"/>
	<polygon class="st7" points="147.5275,110.0512 149.5764,110.0512 149.5764,115.5096 152.0973,115.5096 155.7428,110.0512 
		158.1908,110.0512 153.8202,116.4351 158.4987,123.1085 156.0507,123.1085 152.0793,117.5049 149.5764,117.5049 149.5764,123.1085 
		147.5275,123.1085 	"/>
	<polygon class="st7" points="169.7647,110.0512 178.5603,110.0512 178.5603,113.1344 173.7361,113.1344 173.7361,114.9841 
		178.0338,114.9841 178.0338,118.1756 173.7361,118.1756 173.7361,120.0267 178.5603,120.0267 178.5603,123.1085 169.7647,123.1085 
			"/>
	<path class="st7" d="M0.0803,152.8984v-1.9949c1.3782,0.8527,3.174,1.2879,4.5338,1.2879c1.8128,0,2.7932-0.7075,2.7932-1.923
		c0-1.5957-1.7782-1.8489-3.6274-2.4471c-1.8318-0.5623-3.4999-1.4514-3.4999-3.8086c0-2.3581,1.8673-3.5727,4.4789-3.5727
		c1.5962,0,2.9564,0.3259,4.117,0.9791v1.9585c-1.0699-0.725-2.5577-1.1062-3.8091-1.1062c-1.7765,0-2.6831,0.5808-2.6831,1.723
		c0,1.2878,1.0878,1.6506,2.448,2.0672c2.1037,0.6352,4.6793,1.2694,4.6793,4.117c0,2.5568-1.9045,3.8439-4.7153,3.8439
		C3.3258,154.0222,1.4585,153.6603,0.0803,152.8984z"/>
	<polygon class="st7" points="22.2806,140.6937 24.3299,140.6937 24.3663,151.9185 29.6979,151.9185 29.6979,153.7502 
		22.2806,153.7502 	"/>
	<path class="st7" d="M41.3792,147.24c0-3.9355,2.6117-6.8002,6.6738-6.8002c4.0803,0,6.6916,2.8648,6.6916,6.8002
		c0,3.917-2.5932,6.8195-6.6916,6.8195C43.9909,154.0595,41.3792,151.157,41.3792,147.24z M52.6229,147.24
		c0-2.974-1.741-4.9685-4.5878-4.9685c-2.7928,0-4.5517,1.9945-4.5517,4.9685c0,3.0476,1.8129,4.9688,4.5696,4.9688
		C50.9008,152.2089,52.6229,150.2876,52.6229,147.24z"/>
	<polygon class="st7" points="66.2096,140.7113 68.476,140.7113 72.5931,151.8097 72.7018,151.8097 76.8188,140.7113 
		78.9217,140.7113 73.8445,153.7686 71.2868,153.7686 	"/>
	<polygon class="st7" points="91.2211,140.7113 99.0911,140.7113 99.0911,142.543 93.252,142.543 93.252,146.3154 98.5108,146.3154 
		98.5108,148.1651 93.252,148.1651 93.27,151.937 99.11,151.937 99.11,153.7686 91.2211,153.7686 	"/>
	<polygon class="st7" points="112.0975,140.7298 114.1833,140.7298 121.0198,150.3052 121.1282,150.3052 121.0927,140.7298 
		123.1416,140.7298 123.1416,153.7691 121.183,153.7691 114.2013,144.1757 114.1109,144.1757 114.1465,153.7691 112.0975,153.7691 	
		"/>
	<polygon class="st7" points="136.8556,140.7113 138.8869,140.7113 138.9048,153.7507 136.8556,153.7507 	"/>
	<path class="st7" d="M151.3472,153.8231v-1.9221c0.4167,0.1088,0.8159,0.1632,1.2154,0.1632c1.3603,0,2.3033-0.5264,2.3033-2.6301
		v-8.7227h2.048v8.9587c0,3.0284-1.4497,4.3346-3.9346,4.3346C152.3811,154.0046,151.8547,153.9512,151.3472,153.8231z"/>
	<polygon class="st7" points="170.5003,140.7113 178.3707,140.7113 178.3707,142.543 172.5316,142.543 172.5316,146.3154 
		177.7904,146.3154 177.7904,148.1651 172.5316,148.1651 172.5496,151.937 178.3896,151.937 178.3896,153.7686 170.5003,153.7686 	
		"/>
	<linearGradient id="SVGID_3_" gradientUnits="userSpaceOnUse" x1="63.5763" y1="168.8076" x2="115.7682" y2="168.8076">
		<stop  offset="0" style="stop-color:#B8904C"/>
		<stop  offset="0.3543" style="stop-color:#FAE788"/>
		<stop  offset="0.5432" style="stop-color:#E4BD67"/>
		<stop  offset="1" style="stop-color:#E4BD67"/>
	</linearGradient>
	<rect x="63.5763" y="166.8212" class="st8" width="52.1919" height="3.9728"/>
	<path class="st7" d="M0,91.6684v-3.8078c1.5234,0.9242,3.4819,1.5418,4.8422,1.5418c0.8702,0,1.3058-0.2912,1.3058-0.8167
		c0-0.7251-1.0159-0.7799-2.0497-1.1063c-1.7221-0.5439-4.0254-1.3966-4.0254-4.3342c0-2.5384,1.94-3.9535,4.8956-3.9535
		c1.8137,0,3.5367,0.3448,4.7513,0.8343v3.7903c-1.033-0.6172-2.9915-1.2883-4.2605-1.2883c-0.762,0-1.1606,0.2185-1.1606,0.7439
		c0,0.5983,0.6887,0.7615,1.4497,0.9791c1.8136,0.5263,4.6794,1.1439,4.6794,4.2806c0,2.8467-1.9406,4.2429-5.3137,4.2429
		C2.8648,92.7746,0.8883,92.1219,0,91.6684z"/>
	<path class="st7" d="M26.3906,85.9924c0-3.8806,2.6476-6.819,6.9998-6.819c4.3526,0,7.0186,2.9384,7.0186,6.819
		c0,3.9898-2.5757,6.7826-6.9827,6.7826C29.0022,92.775,26.3906,89.9822,26.3906,85.9924z M36.292,85.9924
		c-0.0189-2.1932-1.2335-3.2455-2.9016-3.2455c-1.6501,0-2.8836,1.0523-2.8836,3.2455c0,2.1041,1.1975,3.228,2.8836,3.228
		C35.1314,89.2203,36.292,88.0965,36.292,85.9924z"/>
	<path class="st7" d="M57.0065,79.4457h5.0233c4.4614,0,6.7826,2.4669,6.7826,6.5282c0,4.0631-2.3213,6.5287-6.7826,6.5287h-5.0233
		V79.4457z M62.1386,89.0567c1.6501,0,2.5568-0.9602,2.5568-3.0828c0-2.1941-1.0155-3.0823-2.5568-3.0823H60.978v6.165H62.1386z"/>
	<path class="st7" d="M85.0468,91.6684v-3.8078c1.5234,0.9242,3.4819,1.5418,4.8421,1.5418c0.8703,0,1.3059-0.2912,1.3059-0.8167
		c0-0.7251-1.0159-0.7799-2.0498-1.1063c-1.7221-0.5439-4.0253-1.3966-4.0253-4.3342c0-2.5384,1.9405-3.9535,4.8961-3.9535
		c1.8132,0,3.5363,0.3448,4.7508,0.8343v3.7903c-1.033-0.6172-2.9911-1.2883-4.2604-1.2883c-0.762,0-1.1606,0.2185-1.1606,0.7439
		c0,0.5983,0.6887,0.7615,1.4496,0.9791c1.8138,0.5263,4.6794,1.1439,4.6794,4.2806c0,2.8467-1.9401,4.2429-5.3136,4.2429
		C87.9116,92.7746,85.9351,92.1219,85.0468,91.6684z"/>
	<polygon class="st7" points="114.5022,83.1632 111.2379,83.1632 111.2379,79.4454 121.7743,79.4454 121.7743,83.1632 
		118.4916,83.1632 118.4916,92.5026 114.5202,92.5026 	"/>
	<polygon class="st7" points="137.0117,79.4454 141.2555,79.4454 143.6676,87.8062 143.8297,87.8062 146.1878,79.4454 
		150.34,79.4454 145.9519,92.5026 141.3999,92.5026 	"/>
	<path class="st7" d="M165.9817,85.9924c0-3.8806,2.6471-6.819,6.9998-6.819c4.3521,0,7.0185,2.9384,7.0185,6.819
		c0,3.9898-2.5756,6.7826-6.9826,6.7826C168.5928,92.775,165.9817,89.9822,165.9817,85.9924z M175.883,85.9924
		c-0.0189-2.1932-1.2334-3.2455-2.9015-3.2455c-1.6502,0-2.8836,1.0523-2.8836,3.2455c0,2.1041,1.1975,3.228,2.8836,3.228
		C174.7223,89.2203,175.883,88.0965,175.883,85.9924z"/>
	<linearGradient id="SVGID_4_" gradientUnits="userSpaceOnUse" x1="63.5756" y1="33.198" x2="115.7677" y2="33.198">
		<stop  offset="0" style="stop-color:#B8904C"/>
		<stop  offset="0.3543" style="stop-color:#FAE788"/>
		<stop  offset="0.5432" style="stop-color:#E4BD67"/>
		<stop  offset="1" style="stop-color:#E4BD67"/>
	</linearGradient>
	<path class="st9" d="M115.5048,5.8969c-0.4599-0.2226-1.8702-0.8562-1.8702-0.8562C106.1148,1.7413,97.8778,0,89.6726,0
		c-8.2058,0-16.4445,1.7413-23.9643,5.0406c-0.0183,0.0059-1.4097,0.6336-1.8708,0.8562c-0.169,0.0801-0.2733,0.2585-0.2609,0.4446
		l1.8773,29.7069c0.5211,8.2393,4.0225,15.9911,9.8628,21.8297c3.9519,3.9524,8.8688,6.8903,14.2234,8.4979
		c0.0418,0.0141,0.0877,0.02,0.1325,0.02c0.0453,0,0.0883-0.0059,0.1319-0.02c5.3528-1.6076,10.2721-4.5455,14.2239-8.4979
		c5.8385-5.8385,9.3411-13.5903,9.8605-21.8297l1.8779-29.7069C115.7786,6.1554,115.6761,5.977,115.5048,5.8969z M92.3351,6.7154
		l2.2278,0.2423l0.9041-2.0505l0.9041,2.0505l2.2278-0.2423l-1.3237,1.8082l1.3237,1.8082l-2.2278-0.2423l-0.9041,2.0505
		l-0.9041-2.0505l-2.2278,0.2423l1.3237-1.8082L92.3351,6.7154z M89.6717,12.6406l0.9041,2.0505l2.2278-0.2423l-1.3237,1.8082
		l1.3237,1.8082l-2.2278-0.2423l-0.9041,2.0505l-0.9041-2.0505l-2.2278,0.2423l1.3237-1.8082l-1.3237-1.8082l2.2278,0.2423
		L89.6717,12.6406z M80.726,6.7154l2.2278,0.2423l0.9041-2.0505l0.9041,2.0505l2.2278-0.2423l-1.3237,1.8082l1.3237,1.8082
		l-2.2278-0.2423l-0.9041,2.0505l-0.9041-2.0505l-2.2278,0.2423l1.3237-1.8082L80.726,6.7154z M80.7426,28.1625l3.5378,4.6454
		l5.3859-10.5898l5.3979,10.5898l3.5365-4.6454l8.9291,11.7635c-0.003,0.4169-0.043,1.0429-0.2179,1.8125
		c-0.1578,0.6943-0.5088,1.5257-1.544,2.5881c-1.037,1.0635-2.5827,1.7206-4.155,1.7206c-0.9952,0-1.978-0.2544-2.8472-0.7355
		c-0.5453-0.3156-1.0387-0.52-1.5499-0.6571c-0.52-0.1396-1.0511-0.2085-1.5823-0.2085c-1.0535,0-2.0987,0.2803-3.025,0.8126
		c-0.8915,0.5158-1.9061,0.7885-2.9355,0.7885c-1.0305,0-2.0451-0.2726-2.939-0.7885c-0.9239-0.5323-1.9709-0.8126-3.025-0.8126
		c-0.5306,0-1.0617,0.0689-1.5793,0.2085c-0.5117,0.1372-1.0052,0.3415-1.5523,0.6571c-0.8668,0.4811-1.852,0.7355-2.8471,0.7355
		c-1.5705,0-3.1174-0.6571-4.1538-1.7206c-1.0346-1.0623-1.3868-1.8938-1.5446-2.5881c-0.1731-0.7696-0.2155-1.3956-0.2185-1.8125
		L80.7426,28.1625z M100.0949,49.2953c-0.4976-0.1342-0.9758-0.3327-1.4209-0.5877c-1.8449-1.0635-4.2257-1.0623-6.0665,0.0012
		c-0.9051,0.5229-1.9156,0.7649-2.9355,0.7637c-1.0199,0.0012-2.0286-0.2408-2.9355-0.7637
		c-1.842-1.0635-4.2221-1.0647-6.0653-0.0012c-0.4469,0.255-0.9251,0.4534-1.4209,0.5877c-1.3196,0.3498-2.7323,0.232-4.0019-0.3492
		l-0.2626-0.1249c-0.4199-0.6831-0.8256-1.382-1.1877-2.0969c0.3421,0.1331,0.6289,0.2697,0.8998,0.4251
		c0.9245,0.5341,1.9703,0.8168,3.0238,0.8168c0.53,0,1.0605-0.0713,1.5799-0.2103c0.507-0.1348,0.9999-0.3392,1.4598-0.6065
		c0.8957-0.5135,1.912-0.7873,2.9384-0.7873c1.0323,0,2.0469,0.2726,2.9384,0.7873c0.9239,0.5341,1.9691,0.8168,3.025,0.8168
		c1.0729,0,2.1181-0.2827,3.0444-0.8168c0.8909-0.5147,1.9061-0.7873,2.9361-0.7873c1.0287,0,2.0451,0.2738,2.939,0.7873
		c0.4617,0.2673,0.9522,0.4717,1.461,0.6065c0.517,0.139,1.0482,0.2103,1.5776,0.2103c1.0535,0,2.1017-0.2827,3.0261-0.8168
		c0.2691-0.1554,0.5577-0.2921,0.8498-0.4045c-0.3115,0.6943-0.7179,1.3933-1.1395,2.0763l-0.2632,0.1249
		C102.8272,49.5274,101.4151,49.6451,100.0949,49.2953z M102.6264,51.3246c-0.6931,0.8886-1.4468,1.7437-2.2459,2.5415
		c-2.9861,2.9867-6.6765,5.2862-10.6731,6.6518c-4.0673-1.3656-7.7577-3.6651-10.7432-6.6518
		c-0.7979-0.7979-1.5534-1.6529-2.2471-2.5415c0.901,0.1437,1.7542,0.1013,2.5845-0.1219c0.5123-0.1378,1.004-0.3404,1.461-0.6042
		c1.7848-1.0323,4.0926-1.0293,5.8768-0.0018c0.9357,0.5406,1.9721,0.8162,3.0238,0.8162c1.0688,0,2.1069-0.2756,3.0426-0.8162
		c1.7842-1.0276,4.0926-1.0305,5.8768,0.0018c0.4575,0.2638,0.9469,0.4664,1.461,0.6042c0.8303,0.2232,1.6818,0.2656,2.5356,0.1313
		L102.6264,51.3246z M112.3108,35.9094c-0.49,7.7859-3.7999,15.112-9.3182,20.6302c-3.7057,3.704-8.307,6.4663-13.32,7.9926
		c-5.0124-1.5263-9.6173-4.2887-13.3206-7.9926c-5.5176-5.517-8.827-12.8425-9.3181-20.6302L65.2296,7.3584l1.3414-0.5559
		l1.8355,29.0091c0.4658,7.4297,3.6244,14.4601,8.9189,19.7545c3.4884,3.4884,7.7312,6.05,12.3455,7.5239
		c4.6149-1.4739,8.8594-4.0355,12.3484-7.5239c5.2944-5.2944,8.4531-12.3249,8.9183-19.7545l1.8337-29.0091
		c0.4446,0.182,1.1094,0.4452,1.3444,0.5571L112.3108,35.9094z"/>
</g>
</svg>
