<?xml version="1.0" encoding="UTF-8"?>
<svg id="Layer_1" data-name="Layer 1" xmlns="http://www.w3.org/2000/svg" width="77.43" height="33.41" xmlns:xlink="http://www.w3.org/1999/xlink" viewBox="0 0 77.43 33.41">
  <defs>
    <style>
      .cls-1 {
        fill: #fff;
      }

      .cls-2 {
        clip-path: url(#clippath);
      }

      .cls-3 {
        fill: none;
      }
    </style>
    <clipPath id="clippath">
      <rect class="cls-3" x="2.38" y="2.49" width="72.78" height="28.02"/>
    </clipPath>
  </defs>
  <rect class="cls-1" x="32.81" y="27.51" width="11.98" height=".47"/>
  <rect class="cls-1" x="32.81" y="28.77" width="11.98" height=".47"/>
  <rect class="cls-1" x="32.81" y="30.04" width="11.98" height=".47"/>
  <g class="cls-2">
    <path class="cls-1" d="M41.87,7.35c-.07,1.05-.51,2.05-1.26,2.79-.5,.5-1.12,.88-1.8,1.08-.68-.21-1.3-.58-1.8-1.08-.75-.75-1.19-1.74-1.26-2.79l-.24-3.87,.18-.08,.25,3.93c.06,1.01,.49,1.96,1.21,2.68,.47,.47,1.05,.82,1.67,1.02,.62-.2,1.2-.55,1.67-1.02,.72-.72,1.14-1.67,1.21-2.68l.25-3.93c.06,.02,.15,.06,.18,.08l-.24,3.87Zm-1.31,2.09c-.09,.12-.2,.24-.3,.34-.41,.4-.91,.72-1.45,.9-.55-.18-1.05-.5-1.45-.9-.11-.11-.21-.22-.3-.34,.12,.02,.24,.01,.35-.02,.07-.02,.14-.05,.2-.08,.24-.14,.55-.14,.8,0,.13,.07,.27,.11,.41,.11s.28-.04,.41-.11c.24-.14,.55-.14,.8,0,.06,.04,.13,.06,.2,.08,.11,.03,.23,.04,.34,.02h0Zm-.34-.28c-.07-.02-.13-.05-.19-.08-.25-.14-.57-.14-.82,0-.12,.07-.26,.1-.4,.1s-.27-.03-.4-.1c-.25-.14-.57-.14-.82,0-.06,.03-.12,.06-.19,.08-.18,.05-.37,.03-.54-.05l-.04-.02c-.06-.09-.11-.19-.16-.28,.05,.02,.09,.04,.12,.06,.12,.07,.27,.11,.41,.11,.07,0,.14,0,.21-.03,.07-.02,.13-.05,.2-.08,.12-.07,.26-.11,.4-.11s.28,.04,.4,.11c.13,.07,.27,.11,.41,.11s.29-.04,.41-.11c.12-.07,.26-.11,.4-.11s.28,.04,.4,.11c.06,.04,.13,.06,.2,.08,.07,.02,.14,.03,.21,.03,.14,0,.28-.04,.41-.11,.04-.02,.08-.04,.12-.05-.04,.09-.1,.19-.15,.28l-.03,.02c-.17,.08-.36,.1-.54,.05m-2.62-2.86l.48,.63,.73-1.43,.73,1.43,.48-.63,1.21,1.59c0,.06,0,.14-.03,.24-.02,.09-.07,.21-.21,.35-.14,.14-.35,.23-.56,.23-.14,0-.27-.04-.39-.1-.07-.04-.14-.07-.21-.09-.07-.02-.14-.03-.21-.03-.14,0-.28,.04-.41,.11-.12,.07-.26,.11-.4,.11s-.28-.04-.4-.11c-.12-.07-.27-.11-.41-.11-.07,0-.14,0-.21,.03-.07,.02-.14,.05-.21,.09-.12,.06-.25,.1-.39,.1-.21,0-.42-.09-.56-.23-.14-.14-.19-.26-.21-.35-.02-.1-.03-.19-.03-.24l1.21-1.59Zm0-2.91l.3,.03,.12-.28,.12,.28,.3-.03-.18,.25,.18,.25-.3-.03-.12,.28-.12-.28-.3,.03,.18-.25-.18-.25Zm1.21,.8l.12,.28,.3-.03-.18,.25,.18,.24-.3-.03-.12,.28-.12-.28-.3,.03,.18-.24-.18-.25,.3,.03,.12-.28Zm.36-.8l.3,.03,.12-.28,.12,.28,.3-.03-.18,.25,.18,.25-.3-.03-.12,.28-.12-.28-.3,.03,.18-.25-.18-.25Zm3.14-.11c-.06-.03-.25-.12-.25-.12-1.02-.45-2.13-.68-3.25-.68s-2.23,.24-3.25,.68c0,0-.19,.09-.25,.12-.02,.01-.04,.04-.03,.06l.25,4.02c.07,1.11,.55,2.16,1.34,2.96,.53,.53,1.2,.93,1.93,1.15,0,0,.01,0,.02,0,0,0,.01,0,.02,0,.73-.22,1.39-.62,1.93-1.15,.79-.79,1.26-1.84,1.33-2.96l.25-4.02s-.01-.05-.03-.06"/>
    <path class="cls-1" d="M72.93,24.5h2.02v-.71h-1.11v-.43h.99v-.73h-.99v-.42h1.11v-.71h-2.02v3Zm-4.35-4.09h.49l.29,.43h.02l.3-.43h.49l-.52,.8h-.55l-.52-.8Zm-.67,2.59c0-.93,.62-1.56,1.6-1.56,.24,0,.46,.03,.71,.13v.48c-.21-.13-.49-.16-.72-.16-.66,0-1.11,.43-1.11,1.12s.47,1.12,1.12,1.12c.25,0,.52-.04,.72-.16v.47c-.22,.1-.44,.13-.72,.13-.95,0-1.6-.64-1.6-1.57m-4.43-2.59h.49l.29,.43h.02l.3-.43h.49l-.52,.8h-.55l-.52-.8Zm-.33,3.89v-.46c.32,.2,.73,.3,1.04,.3,.42,0,.64-.16,.64-.44,0-.37-.41-.42-.83-.56-.42-.13-.8-.33-.8-.87s.43-.82,1.03-.82c.37,0,.68,.07,.95,.23v.45c-.25-.17-.59-.25-.88-.25-.41,0-.62,.13-.62,.39,0,.3,.25,.38,.56,.47,.48,.15,1.08,.29,1.08,.95,0,.59-.44,.88-1.08,.88-.34,0-.77-.08-1.08-.26m-3.29,.2h.47v-2.99h-.47v2.99Zm-4.36-.42c.68,0,1.07-.37,1.07-1.08s-.37-1.08-1.07-1.08h-.55v2.16h.55Zm-1.02-2.58h1.02c1,0,1.55,.55,1.55,1.5s-.55,1.5-1.55,1.5h-1.02v-3Zm-3.3,1.5c0-.68-.4-1.14-1.05-1.14s-1.04,.46-1.04,1.14,.42,1.14,1.05,1.14,1.05-.44,1.05-1.14m-2.58,0c0-.9,.6-1.56,1.53-1.56s1.54,.66,1.54,1.56-.6,1.57-1.54,1.57-1.53-.67-1.53-1.57m-3.67,1.56c.65,0,1.08-.3,1.08-.88,0-.65-.59-.8-1.07-.95-.31-.1-.56-.18-.56-.47,0-.26,.21-.39,.62-.39,.29,0,.63,.09,.88,.25v-.45c-.27-.15-.58-.23-.95-.23-.6,0-1.03,.28-1.03,.82s.38,.74,.8,.87c.42,.14,.83,.2,.83,.56,0,.28-.22,.44-.64,.44-.31,0-.73-.1-1.04-.3v.46c.32,.18,.75,.26,1.08,.26m-7.51-1.56c0-.68-.4-1.14-1.05-1.14s-1.05,.46-1.05,1.14,.42,1.14,1.05,1.14,1.05-.44,1.05-1.14m-2.58,0c0-.9,.6-1.56,1.53-1.56s1.54,.66,1.54,1.56-.6,1.57-1.54,1.57-1.53-.67-1.53-1.57m-5.35,1.5h.47v-2.2s.01,0,.01,0l1.6,2.2h.45v-3h-.47v2.2s-.02,0-.02,0l-1.57-2.2h-.48v3Zm-4.42,0h.59l1.17-3h-.48l-.95,2.55h-.02l-.95-2.55h-.52l1.17,3Zm-4.01-1.5c0-.68-.4-1.14-1.05-1.14s-1.05,.46-1.05,1.14,.42,1.14,1.05,1.14,1.05-.44,1.05-1.14m-2.58,0c0-.9,.6-1.56,1.53-1.56s1.54,.66,1.54,1.56-.6,1.57-1.54,1.57-1.53-.67-1.53-1.57m-5.37,1.5h.47v-1.29h1.62v1.29h.47v-3h-.47v1.29h-1.62v-1.29h-.48v3Zm-3.85-1.52c.31,0,.53-.19,.53-.52,0-.38-.27-.52-.63-.52h-.65v1.05h.76Zm-1.23-1.47h1.1c.69,0,1.14,.26,1.14,.95,0,.44-.28,.78-.61,.88l.7,1.16h-.53l-.66-1.1h-.67v1.1h-.47v-3Zm-4.61,3h1.05l1.01-3h-.95l-.54,1.92h-.04l-.55-1.92h-.97l1.01,3Zm70.51-8.18l-.23-.85h-.05l-.23,.85h.51Zm.19,.69h-.89l-.13,.48h-.94l1-2.99h1.03l1,2.99h-.94l-.13-.48Zm-4.52,.53c.8,0,1.07-.47,1.07-1.42v-1.64h-.91v1.52c0,.52-.09,.67-.41,.67-.07,0-.14,0-.22-.03v.83c.14,.04,.31,.07,.48,.07m-3.08-.06h.91v-3h-.91v3Zm-4.65,0h.91v-1.43s.03,0,.03,0l1.04,1.43h.76v-3h-.91v1.49s-.03,0-.03,0l-1.05-1.49h-.75v3Zm-3.86,0h2.02v-.71h-1.11v-.43h.99v-.73h-.99v-.43h1.11v-.71h-2.02v3Zm-3.66,0h1.04l1.01-3h-.95l-.54,1.92h-.04l-.56-1.92h-.97l1.01,3Zm-3.3-1.49c0-.5-.28-.75-.67-.75s-.66,.24-.66,.75,.27,.74,.66,.74,.67-.26,.67-.74m-2.27,0c0-.89,.61-1.57,1.61-1.57s1.61,.67,1.61,1.57-.59,1.56-1.6,1.56-1.62-.64-1.62-1.56m-3.44,1.49h1.92v-.86h-1v-2.14h-.92v3Zm-2.98,.06c.77,0,1.22-.32,1.22-.98,0-.72-.66-.86-1.08-.98-.17-.05-.33-.09-.33-.22,0-.12,.09-.17,.27-.17,.29,0,.74,.15,.98,.3v-.87c-.28-.11-.68-.19-1.09-.19-.68,0-1.12,.32-1.12,.91,0,.68,.53,.87,.92,.99,.24,.08,.47,.09,.47,.26,0,.12-.1,.19-.3,.19-.31,0-.76-.14-1.11-.35v.88c.2,.1,.66,.25,1.17,.25m-6.21-1.23l-.23-.85h-.05l-.23,.85h.5Zm.19,.69h-.89l-.13,.48h-.94l1-2.99h1.03l1,2.99h-.94l-.13-.48Zm-6.23,.48h.91v-1.08h.25l.56,1.08h1.05l-.82-1.51,.8-1.49h-1.02l-.55,1.07h-.28v-1.07h-.91v3Zm-2.8,0h.91v-3h-.91v3Zm-3.57,0h1.92v-.86h-1v-2.14h-.92v3Zm-3-.69c.18,0,.29-.07,.29-.26,0-.17-.09-.27-.28-.27h-.32v.53h.31Zm-.02-1.12c.16,0,.25-.09,.25-.25s-.08-.24-.26-.24h-.27v.49h.29Zm-1.16-1.19h1.19c.8,0,1.14,.3,1.14,.84,0,.27-.12,.5-.4,.62v.03c.32,.12,.5,.33,.5,.68,0,.57-.39,.83-1.24,.83h-1.18v-3Zm-3.24,3.06c.87,0,1.37-.4,1.37-1.4v-1.66h-.91v1.78c0,.3-.13,.46-.46,.46s-.47-.16-.47-.46v-1.78h-.91v1.66c0,.97,.49,1.4,1.38,1.4m-4.31-1.6c.25,0,.37-.12,.37-.33s-.12-.34-.37-.34h-.23v.67h.23Zm-1.14-1.46h1.17c.81,0,1.26,.4,1.26,1.12s-.47,1.12-1.26,1.12h-.26v.75h-.91v-3Zm-3.86,3h2.02v-.71h-1.11v-.43h.99v-.73h-.99v-.43h1.11v-.71h-2.02v3Zm-3.11-1.61c.23,0,.35-.1,.35-.31s-.13-.31-.37-.31h-.25v.62h.27Zm-1.18-1.39h1.18c.84,0,1.3,.35,1.3,1.07,0,.44-.23,.77-.45,.91l.59,1.02h-1.03l-.42-.87h-.25v.87h-.91v-3Z"/>
  </g>
</svg>